<?xml version="1.0" encoding="utf-8"?>
<!-- Generator: Adobe Illustrator 21.0.0, SVG Export Plug-In . SVG Version: 6.00 Build 0)  -->
<svg version="1.1" id="Layer_1" xmlns="http://www.w3.org/2000/svg" xmlns:xlink="http://www.w3.org/1999/xlink" x="0px" y="0px"
	 width="115px" height="30px" viewBox="0 0 115 30" style="enable-background:new 0 0 115 30;" xml:space="preserve">
<style type="text/css">
	.st0{fill:#3681EE;}
</style>
<title>Side</title>
<desc>Created with Sketch.</desc>
<g>
	<path class="st0" d="M6.3,7.4l0.2,2.3c0.5-0.8,1.2-1.4,2-1.9s1.7-0.7,2.7-0.7c1.7,0,2.9,0.5,3.9,1.5c0.9,1,1.4,2.6,1.4,4.7v10h-3.6
		v-9.9c0-1.2-0.2-2-0.7-2.5S10.9,10,9.9,10c-0.7,0-1.3,0.2-1.9,0.5s-1,0.7-1.3,1.3v11.5H3.1V7.4H6.3z"/>
	<path class="st0" d="M34,15.9c0,2.3-0.5,4.2-1.6,5.6s-2.6,2.1-4.5,2.1c-0.9,0-1.7-0.2-2.4-0.5s-1.3-0.8-1.8-1.4v7.7h-3.6V7.4h3
		l0.4,2c0.5-0.7,1.1-1.3,1.8-1.7c0.7-0.4,1.5-0.6,2.5-0.6c2,0,3.5,0.8,4.6,2.3C33.5,11,34,13,34,15.5V15.9z M30.5,15.5
		c0-1.6-0.3-2.9-0.9-4S28,10,26.8,10c-0.7,0-1.4,0.2-1.9,0.5s-0.9,0.8-1.2,1.3V19c0.3,0.6,0.7,1,1.2,1.3c0.5,0.3,1.2,0.4,1.9,0.4
		c1.2,0,2.1-0.4,2.7-1.3c0.6-0.9,0.9-2.1,0.9-3.5V15.5z"/>
	<path class="st0" d="M36.9,23.3V1.9h7.7c2.5,0,4.6,0.8,6.3,2.5s2.5,3.7,2.5,6.3v3.8c0,2.6-0.8,4.7-2.5,6.3s-3.8,2.4-6.3,2.4H36.9z
		 M41.9,5.7v13.7h2.4c1.3,0,2.3-0.5,3.1-1.4c0.7-0.9,1.1-2.1,1.1-3.6v-3.9c0-1.5-0.4-2.7-1.1-3.6s-1.8-1.3-3.1-1.3H41.9z"/>
	<path class="st0" d="M63.5,23.6c-2.3,0-4.2-0.7-5.6-2.2c-1.4-1.5-2.1-3.3-2.1-5.5v-0.6c0-2.4,0.6-4.4,1.9-5.9s3.1-2.3,5.4-2.3
		c2.1,0,3.8,0.6,5.1,1.9s1.8,3,1.8,5.2v2.6H61l0,0.1c0.1,0.8,0.4,1.5,1,2c0.6,0.5,1.3,0.8,2.2,0.8c0.9,0,1.7-0.1,2.2-0.2
		s1.3-0.4,2.1-0.8l1.2,3c-0.7,0.5-1.6,0.9-2.7,1.3C65.9,23.4,64.7,23.6,63.5,23.6z M63.1,10.9c-0.7,0-1.2,0.3-1.6,0.8
		c-0.4,0.5-0.6,1.2-0.7,2l0,0.1h4.3v-0.4c0-0.8-0.2-1.4-0.5-1.8S63.8,10.9,63.1,10.9z"/>
	<path class="st0" d="M76.8,7.4l0.2,2.1c0.5-0.8,1.1-1.4,1.9-1.8c0.8-0.4,1.6-0.6,2.6-0.6c1,0,1.8,0.2,2.5,0.6s1.3,1.1,1.6,2
		c0.5-0.8,1.1-1.5,1.9-1.9c0.8-0.5,1.7-0.7,2.7-0.7c1.5,0,2.8,0.5,3.6,1.6c0.9,1.1,1.3,2.7,1.3,4.9v9.7h-5v-9.7c0-1-0.2-1.7-0.5-2.1
		s-0.8-0.6-1.4-0.6c-0.5,0-0.9,0.1-1.3,0.3c-0.4,0.2-0.7,0.4-0.9,0.7c0,0.2,0,0.3,0,0.4s0,0.2,0,0.4v10.6h-5v-9.7
		c0-1-0.2-1.7-0.5-2.1s-0.8-0.6-1.5-0.6c-0.4,0-0.9,0.1-1.2,0.3c-0.4,0.2-0.7,0.4-0.9,0.7v11.4h-5V7.4H76.8z"/>
	<path class="st0" d="M97.3,15.2c0-2.4,0.7-4.3,2-5.8s3.2-2.2,5.6-2.2c2.4,0,4.3,0.7,5.7,2.2s2,3.4,2,5.8v0.3c0,2.4-0.7,4.3-2,5.8
		s-3.2,2.2-5.6,2.2c-2.4,0-4.3-0.7-5.7-2.2s-2-3.4-2-5.8V15.2z M102.2,15.5c0,1.3,0.2,2.4,0.6,3.1c0.4,0.8,1.1,1.1,2.1,1.1
		c1,0,1.7-0.4,2.1-1.1s0.6-1.8,0.6-3.1v-0.3c0-1.3-0.2-2.3-0.6-3.1s-1.1-1.2-2.1-1.2c-1,0-1.7,0.4-2.1,1.2s-0.6,1.8-0.6,3.1V15.5z"
		/>
</g>
</svg>
