<?xml version="1.0" encoding="UTF-8" standalone="no"?>
<svg width="12px" height="10px" viewBox="0 0 12 10" version="1.1" xmlns="http://www.w3.org/2000/svg" xmlns:xlink="http://www.w3.org/1999/xlink">
    <!-- Generator: Sketch 41.1 (35376) - http://www.bohemiancoding.com/sketch -->
    <title></title>
    <desc>Created with Sketch.</desc>
    <defs></defs>
    <g id="UI-kit" stroke="none" stroke-width="1" fill="none" fill-rule="evenodd">
        <g id="UI-Kit" transform="translate(-414.000000, -3041.000000)" fill="#FFFFFF">
            <g id="Group-7" transform="translate(80.000000, 3020.000000)">
                <g id="Group-8" transform="translate(292.000000, 10.000000)">
                    <path d="M42.5,17 L50.46875,17 L48.15625,19.40625 C48.0520828,19.5104172 48,19.6354159 48,19.78125 C48,19.9270841 48.0520828,20.0416662 48.15625,20.125 L48.8125,20.84375 C49.0416678,21.0937513 49.2708322,21.0937513 49.5,20.84375 L53.875,16.34375 C54.0833344,16.1145822 54.0833344,15.8750013 53.875,15.625 L49.53125,11.15625 C49.4479162,11.0520828 49.3385423,11 49.203125,11 C49.0677077,11 48.9479172,11.0520828 48.84375,11.15625 L48.15625,11.875 C47.9270822,12.1041678 47.9270822,12.3437487 48.15625,12.59375 L50.5,15 L42.5,15 C42.3541659,15 42.2343755,15.0468745 42.140625,15.140625 C42.0468745,15.2343755 42,15.3541659 42,15.5 L42,16.5 C42,16.6458341 42.0468745,16.7656245 42.140625,16.859375 C42.2343755,16.9531255 42.3541659,17 42.5,17 Z" id=""></path>
                </g>
            </g>
        </g>
    </g>
</svg>