<?xml version="1.0" encoding="UTF-8" standalone="no"?>
<svg width="24px" height="24px" viewBox="0 0 24 24" version="1.1" xmlns="http://www.w3.org/2000/svg" xmlns:xlink="http://www.w3.org/1999/xlink">
    <!-- Generator: Sketch 40.3 (33839) - http://www.bohemiancoding.com/sketch -->
    <title>Linkedin</title>
    <desc>Created with Sketch.</desc>
    <defs></defs>
    <g id="Icons" stroke="none" stroke-width="1" fill="none" fill-rule="evenodd" opacity="0.600000024">
        <path d="M0.5625,24 L5.25,24 L5.25,6.8125 L0.5625,6.8125 L0.5625,24 Z M17.75,6.8125 C16.4479102,6.8125 15.4388057,7.09732788 14.7226562,7.66699219 C14.0065068,8.23665649 13.4368511,8.99348486 13.0136719,9.9375 L13.0625,6.8125 L8.42382812,6.8125 L8.375,24 L13.0625,24 L13.0625,14.8691406 C13.0625,14.2832002 13.1113276,13.8437515 13.2089844,13.5507812 C13.4368501,13.0299453 13.8274712,12.5660828 14.3808594,12.1591797 C14.9342476,11.7522766 15.5690068,11.5488281 16.2851562,11.5488281 C17.2291714,11.5488281 17.9697239,11.8824836 18.5068359,12.5498047 C19.043948,13.2171257 19.3125,14.120437 19.3125,15.2597656 L19.3125,24 L24,24 L24,14.625 C24,12.1835815 23.4140684,10.2711658 22.2421875,8.88769531 C21.0703066,7.50422485 19.5729258,6.8125 17.75,6.8125 L17.75,6.8125 Z M0.5625,2.90625 C0.5625,3.55729492 0.790362305,4.1106748 1.24609375,4.56640625 C1.7018252,5.0221377 2.25520508,5.25 2.90625,5.25 C3.55729492,5.25 4.1106748,5.0221377 4.56640625,4.56640625 C5.0221377,4.1106748 5.25,3.55729492 5.25,2.90625 C5.25,2.25520508 5.0221377,1.7018252 4.56640625,1.24609375 C4.1106748,0.790362305 3.55729492,0.5625 2.90625,0.5625 C2.25520508,0.5625 1.7018252,0.790362305 1.24609375,1.24609375 C0.790362305,1.7018252 0.5625,2.25520508 0.5625,2.90625 L0.5625,2.90625 Z" id="Linkedin" fill="#FFFFFF"></path>
    </g>
</svg>