<?xml version="1.0" encoding="UTF-8" standalone="no"?>
<svg width="36px" height="36px" viewBox="0 0 36 36" version="1.1" xmlns="http://www.w3.org/2000/svg" xmlns:xlink="http://www.w3.org/1999/xlink">
    <!-- Generator: Sketch 41.1 (35376) - http://www.bohemiancoding.com/sketch -->
    <title>Google</title>
    <desc>Created with Sketch.</desc>
    <defs>
        <path d="M19.7674419,8.37209302 L18.6046512,8.37209302 L14.7906977,8.37209302 L10.2325581,8.37209302 L10.2325581,12.3255814 L15.7209302,12.3255814 C15.2093023,14.8372093 13.0697674,16.2790698 10.2325581,16.2790698 C6.88372093,16.2790698 4.18604651,13.5813953 4.18604651,10.2325581 C4.18604651,6.88372093 6.88372093,4.18604651 10.2325581,4.18604651 C11.6744186,4.18604651 12.9767442,4.69767442 14,5.53488372 L16.9767442,2.55813953 C15.1627907,0.976744186 12.8372093,0 10.2325581,0 C4.55813953,0 0,4.55813953 0,10.2325581 C0,15.9069767 4.55813953,20.4651163 10.2325581,20.4651163 C15.3488372,20.4651163 20,16.744186 20,10.2325581 C20,9.62790698 19.9069767,8.97674419 19.7674419,8.37209302 Z" id="path-1"></path>
        <path d="M19.7674419,8.37209302 L18.6046512,8.37209302 L14.7906977,8.37209302 L10.2325581,8.37209302 L10.2325581,12.3255814 L15.7209302,12.3255814 C15.2093023,14.8372093 13.0697674,16.2790698 10.2325581,16.2790698 C6.88372093,16.2790698 4.18604651,13.5813953 4.18604651,10.2325581 C4.18604651,6.88372093 6.88372093,4.18604651 10.2325581,4.18604651 C11.6744186,4.18604651 12.9767442,4.69767442 14,5.53488372 L16.9767442,2.55813953 C15.1627907,0.976744186 12.8372093,0 10.2325581,0 C4.55813953,0 0,4.55813953 0,10.2325581 C0,15.9069767 4.55813953,20.4651163 10.2325581,20.4651163 C15.3488372,20.4651163 20,16.744186 20,10.2325581 C20,9.62790698 19.9069767,8.97674419 19.7674419,8.37209302 Z" id="path-3"></path>
        <path d="M19.7674419,8.37209302 L18.6046512,8.37209302 L14.7906977,8.37209302 L10.2325581,8.37209302 L10.2325581,12.3255814 L15.7209302,12.3255814 C15.2093023,14.8372093 13.0697674,16.2790698 10.2325581,16.2790698 C6.88372093,16.2790698 4.18604651,13.5813953 4.18604651,10.2325581 C4.18604651,6.88372093 6.88372093,4.18604651 10.2325581,4.18604651 C11.6744186,4.18604651 12.9767442,4.69767442 14,5.53488372 L16.9767442,2.55813953 C15.1627907,0.976744186 12.8372093,0 10.2325581,0 C4.55813953,0 0,4.55813953 0,10.2325581 C0,15.9069767 4.55813953,20.4651163 10.2325581,20.4651163 C15.3488372,20.4651163 20,16.744186 20,10.2325581 C20,9.62790698 19.9069767,8.97674419 19.7674419,8.37209302 Z" id="path-5"></path>
        <path d="M19.7674419,8.37209302 L18.6046512,8.37209302 L14.7906977,8.37209302 L10.2325581,8.37209302 L10.2325581,12.3255814 L15.7209302,12.3255814 C15.2093023,14.8372093 13.0697674,16.2790698 10.2325581,16.2790698 C6.88372093,16.2790698 4.18604651,13.5813953 4.18604651,10.2325581 C4.18604651,6.88372093 6.88372093,4.18604651 10.2325581,4.18604651 C11.6744186,4.18604651 12.9767442,4.69767442 14,5.53488372 L16.9767442,2.55813953 C15.1627907,0.976744186 12.8372093,0 10.2325581,0 C4.55813953,0 0,4.55813953 0,10.2325581 C0,15.9069767 4.55813953,20.4651163 10.2325581,20.4651163 C15.3488372,20.4651163 20,16.744186 20,10.2325581 C20,9.62790698 19.9069767,8.97674419 19.7674419,8.37209302 Z" id="path-7"></path>
    </defs>
    <g id="Log-in/sign-up" stroke="none" stroke-width="1" fill="none" fill-rule="evenodd">
        <g id="CompanySignUp" transform="translate(-497.000000, -307.000000)">
            <g id="Group-4" transform="translate(480.000000, 290.000000)">
                <g id="Google" transform="translate(17.000000, 17.000000)">
                    <circle id="Oval" fill="#FFFFFF" cx="18" cy="18" r="18"></circle>
                    <g id="google" transform="translate(8.000000, 8.000000)">
                        <g id="Clipped">
                            <mask id="mask-2" fill="white">
                                <use xlink:href="#path-1"></use>
                            </mask>
                            <g id="SVGID_1_"></g>
                            <polygon id="Shape" fill="#FBBC05" mask="url(#mask-2)" points="0 16.0930233 0 4 7.90697674 10.0465116"></polygon>
                        </g>
                        <g id="Clipped">
                            <mask id="mask-4" fill="white">
                                <use xlink:href="#path-3"></use>
                            </mask>
                            <g id="SVGID_1_"></g>
                            <polygon id="Shape" fill="#EA4335" mask="url(#mask-4)" points="0 4.11627907 7.90697674 10.1627907 11.1627907 7.3255814 22.3255814 5.51162791 22.3255814 -1 0 -1"></polygon>
                        </g>
                        <g id="Clipped">
                            <mask id="mask-6" fill="white">
                                <use xlink:href="#path-5"></use>
                            </mask>
                            <g id="SVGID_1_"></g>
                            <polygon id="Shape" fill="#34A853" mask="url(#mask-6)" points="0 16.2093023 13.9534884 5.51162791 17.627907 5.97674419 22.3255814 -1 22.3255814 21.3255814 0 21.3255814"></polygon>
                        </g>
                        <g id="Clipped">
                            <mask id="mask-8" fill="white">
                                <use xlink:href="#path-7"></use>
                            </mask>
                            <g id="SVGID_1_"></g>
                            <polygon id="Shape" fill="#4285F4" mask="url(#mask-8)" points="22.2790698 21.2093023 7.86046512 10.0465116 6 8.65116279 22.2790698 4"></polygon>
                        </g>
                    </g>
                </g>
            </g>
        </g>
    </g>
</svg>