<?xml version="1.0" encoding="UTF-8" standalone="no"?>
<svg width="25px" height="21px" viewBox="0 0 25 21" version="1.1" xmlns="http://www.w3.org/2000/svg" xmlns:xlink="http://www.w3.org/1999/xlink">
    <!-- Generator: Sketch 40.3 (33839) - http://www.bohemiancoding.com/sketch -->
    <title>Twitter</title>
    <desc>Created with Sketch.</desc>
    <defs></defs>
    <g id="Icons" stroke="none" stroke-width="1" fill="none" fill-rule="evenodd" opacity="0.600000024">
        <path d="M25,2.51757812 C24.0559849,2.94075732 23.0631562,3.21744727 22.0214844,3.34765625 C23.160813,2.66405908 23.9257793,1.72005811 24.3164062,0.515625 C23.2747344,1.10156543 22.1842505,1.5084624 21.0449219,1.73632812 C20.0358022,0.662104004 18.7825596,0.125 17.2851562,0.125 C15.8854097,0.125 14.6809946,0.629552246 13.671875,1.63867188 C12.6627554,2.6477915 12.1582031,3.85220654 12.1582031,5.25195312 C12.1582031,5.64258008 12.2070308,6.03320117 12.3046875,6.42382812 C10.2213438,6.32617139 8.26010034,5.80534326 6.42089844,4.86132812 C4.58169653,3.91731299 3.01107422,2.64779443 1.70898438,1.05273438 C1.25325293,1.86654053 1.02539062,2.72916211 1.02539062,3.640625 C1.02539062,4.4869834 1.26952881,5.28450146 1.7578125,6.03320312 C2.24609619,6.78190479 2.86457959,7.40038818 3.61328125,7.88867187 C3.12499756,7.88867187 2.66113501,7.8317063 2.22167969,7.71777344 C1.78222437,7.60384058 1.5625,7.44921973 1.5625,7.25390625 L1.5625,7.3515625 C1.5625,8.58854785 1.9124314,9.6708938 2.61230469,10.5986328 C3.31217798,11.5263718 4.23176514,12.1204414 5.37109375,12.3808594 C4.94791455,12.4785161 4.45963818,12.5273438 3.90625,12.5273438 C3.54817529,12.5273438 3.20638184,12.494792 2.88085938,12.4296875 C3.20638184,13.4713594 3.80045142,14.325843 4.66308594,14.9931641 C5.52572046,15.6604851 6.51041113,15.9941406 7.6171875,15.9941406 C5.76170947,17.4589917 3.62956934,18.1914062 1.22070312,18.1914062 C0.830076172,18.1914062 0.423179199,18.1751304 0,18.1425781 C2.40886621,19.6725337 5.02928271,20.4375 7.86132812,20.4375 C10.1074331,20.4375 12.1826077,19.9980513 14.0869141,19.1191406 C15.9912205,18.24023 17.537429,17.0927805 18.7255859,15.6767578 C19.9137429,14.2607351 20.8333301,12.6982507 21.484375,10.9892578 C22.1354199,9.28026489 22.4609375,7.56315967 22.4609375,5.83789062 C22.4609375,5.64257715 22.4446616,5.43099072 22.4121094,5.203125 C23.421229,4.45442334 24.2838506,3.55925 25,2.51757812 L25,2.51757812 Z" id="Twitter" fill="#FFFFFF"></path>
    </g>
</svg>